<?xml version="1.0" encoding="utf-8"?>
<!-- Generator: Adobe Illustrator 16.0.4, SVG Export Plug-In . SVG Version: 6.00 Build 0)  -->
<!DOCTYPE svg PUBLIC "-//W3C//DTD SVG 1.1//EN" "http://www.w3.org/Graphics/SVG/1.1/DTD/svg11.dtd">
<svg version="1.1" id="Layer_1" xmlns="http://www.w3.org/2000/svg" xmlns:xlink="http://www.w3.org/1999/xlink" x="0px" y="0px"
	 width="63.57px" height="73.285px" viewBox="0 0 63.57 73.285" enable-background="new 0 0 63.57 73.285" xml:space="preserve">
<g>
	<polygon fill="#0237FF" points="11.719,45.898 0,47.641 7.056,25.282 	"/>
	<path fill="#0237FF" d="M18.958,62.975l1.482,8.307c25.526-2.453,34.312-13.273,34.312-13.273l-4.091-7.035l-5.562-7.69
		c0,0-22.745-1.146-30.272-0.818C7.3,42.791,4,50.893,4,50.893l4.938,14.151"/>
</g>
<path fill="#0237FF" d="M32.335,0C15.933,0,2.637,13.296,2.636,29.7c0,16.401,13.297,29.7,29.698,29.7
	c16.403,0,29.7-13.299,29.7-29.7C62.035,13.296,48.738,0,32.335,0z M14.5,37.063c-1.807,0-3.271-1.465-3.271-3.272
	c0-1.807,1.464-3.272,3.271-3.272c1.808,0,3.272,1.464,3.272,3.272C17.772,35.598,16.307,37.063,14.5,37.063z M39.513,37.78
	c-0.174,0.421-0.415,0.786-0.725,1.097c-0.311,0.311-0.676,0.551-1.097,0.725c-0.422,0.173-0.868,0.26-1.339,0.26
	s-0.916-0.087-1.338-0.26c-0.422-0.174-0.787-0.414-1.096-0.725c-0.311-0.311-0.553-0.676-0.726-1.097s-0.261-0.867-0.261-1.338
	c0-0.47,0.088-0.917,0.261-1.338c0.173-0.421,0.415-0.786,0.726-1.096c0.309-0.31,0.674-0.551,1.096-0.725
	c0.422-0.173,0.867-0.26,1.338-0.26s0.917,0.087,1.339,0.26c0.421,0.174,0.786,0.416,1.097,0.725c0.31,0.31,0.551,0.675,0.725,1.096
	c0.173,0.422,0.26,0.868,0.26,1.338C39.773,36.913,39.686,37.359,39.513,37.78z M44.978,21.926
	c-0.149,0.583-0.404,1.159-0.763,1.729c-0.359,0.57-0.831,1.146-1.413,1.729c-0.582,0.583-1.318,1.221-2.211,1.915
	c-0.57,0.446-0.955,0.88-1.152,1.301c-0.199,0.422-0.297,0.843-0.297,1.264v1.078h-5.576v-1.636c0-0.743,0.099-1.375,0.297-1.896
	s0.533-1.003,1.004-1.45c0.693-0.669,1.332-1.251,1.914-1.747c0.582-0.496,1.084-0.96,1.506-1.394
	c0.421-0.433,0.749-0.842,0.984-1.227c0.236-0.384,0.354-0.787,0.354-1.208c0-0.818-0.254-1.456-0.762-1.915
	c-0.508-0.458-1.146-0.688-1.914-0.688c-1.166,0-2.051,0.322-2.658,0.966c-0.607,0.645-0.947,1.425-1.021,2.342l-5.725-0.372
	c0.272-2.626,1.239-4.628,2.899-6.003c1.66-1.375,3.792-2.063,6.394-2.063c1.139,0,2.211,0.155,3.215,0.465
	c1.004,0.31,1.889,0.775,2.658,1.394c0.768,0.62,1.375,1.388,1.82,2.305c0.447,0.917,0.67,1.97,0.67,3.159
	C45.201,20.694,45.127,21.344,44.978,21.926z"/>
</svg>
