<?xml version="1.0" encoding="utf-8"?>
<!-- Generator: Adobe Illustrator 16.0.4, SVG Export Plug-In . SVG Version: 6.00 Build 0)  -->
<!DOCTYPE svg PUBLIC "-//W3C//DTD SVG 1.1//EN" "http://www.w3.org/Graphics/SVG/1.1/DTD/svg11.dtd">
<svg version="1.1" id="Layer_1" xmlns="http://www.w3.org/2000/svg" xmlns:xlink="http://www.w3.org/1999/xlink" x="0px" y="0px"
	 width="63.57px" height="73.285px" viewBox="0 0 63.57 73.285" enable-background="new 0 0 63.57 73.285" xml:space="preserve">
<g>
	<polygon fill="#010101" points="11.719,45.899 0,47.64 7.056,25.282 	"/>
	<path fill="#010101" d="M18.958,62.974l1.482,8.307c25.527-2.453,34.312-13.273,34.312-13.273l-4.091-7.036l-5.562-7.69
		c0,0-22.745-1.146-30.272-0.818C7.3,42.791,4,50.892,4,50.892l4.937,14.152"/>
	<path fill="#010101" d="M2.636,29.7c0,16.402,13.297,29.7,29.699,29.7c16.403,0,29.7-13.298,29.7-29.7
		c0-16.404-13.297-29.7-29.7-29.7C15.933,0,2.637,13.296,2.636,29.7z M28.942,17.13h15.252v22.737h-5.009v-8.864h-9.474v-4.624
		h9.474v-4.625H28.942V17.13z M11.229,33.791c0-1.807,1.464-3.272,3.271-3.272c1.807,0,3.272,1.464,3.272,3.272
		c0,1.807-1.465,3.272-3.272,3.272S11.228,35.598,11.229,33.791z"/>
</g>
</svg>
