<?xml version="1.0" encoding="utf-8"?>
<!-- Generator: Adobe Illustrator 16.0.4, SVG Export Plug-In . SVG Version: 6.00 Build 0)  -->
<!DOCTYPE svg PUBLIC "-//W3C//DTD SVG 1.1//EN" "http://www.w3.org/Graphics/SVG/1.1/DTD/svg11.dtd">
<svg version="1.1" id="Layer_1" xmlns="http://www.w3.org/2000/svg" xmlns:xlink="http://www.w3.org/1999/xlink" x="0px" y="0px"
	 width="792px" height="612px" viewBox="0 0 792 612" enable-background="new 0 0 792 612" xml:space="preserve">
<rect fill="#FFFFFF" width="792" height="612"/>
<g>
	<defs>
		<rect id="SVGID_1_" width="792" height="612"/>
	</defs>
	<clipPath id="SVGID_2_">
		<use xlink:href="#SVGID_1_"  overflow="visible"/>
	</clipPath>
	<g clip-path="url(#SVGID_2_)">
		<text transform="matrix(1 0 0 1 188.5601 17.7598)" fill="#0000FF" font-family="'Avenir-Black'" font-size="10">fear</text>
	</g>
	<g clip-path="url(#SVGID_2_)">
		<text transform="matrix(1 0 0 1 577.7002 17.7598)"><tspan x="0" y="0" fill="#0000FF" font-family="'Avenir-Black'" font-size="10">cultu</tspan><tspan x="22.97" y="0" fill="#0000FF" font-family="'Avenir-Black'" font-size="10">r</tspan><tspan x="26.859" y="0" fill="#0000FF" font-family="'Avenir-Black'" font-size="10">e</tspan></text>
	</g>
</g>
<text transform="matrix(1 0 0 1 191.6709 601.5596)" fill="#0000FF" font-family="'Avenir-Black'" font-size="10">12</text>
<text transform="matrix(1 0 0 1 587.6709 601.5596)" fill="#0000FF" font-family="'Avenir-Black'" font-size="10">13</text>
<g>
	<defs>
		<rect id="SVGID_3_" width="792" height="612"/>
	</defs>
	<clipPath id="SVGID_4_">
		<use xlink:href="#SVGID_3_"  overflow="visible"/>
	</clipPath>
	
		<path clip-path="url(#SVGID_4_)" fill="none" stroke="#0000FF" stroke-width="6" stroke-linecap="round" stroke-miterlimit="10" d="
		M152.125,244.326l17.923,17.922 M243.998,244.326l-17.227,17.226 M198.062,255.81v-22.969 M243.998,370.651l-17.923-17.923
		 M152.125,370.651l17.227-17.227 M198.062,359.167v22.969 M209.545,307.489c0-6.343-5.141-11.485-11.484-11.485
		c-6.343,0-11.484,5.142-11.484,11.485c0,6.342,5.141,11.483,11.484,11.483C204.404,318.973,209.545,313.831,209.545,307.489z
		 M175.093,307.489c0-12.686,10.283-22.969,22.968-22.969c12.685,0,22.968,10.283,22.968,22.969
		c0,12.684-10.283,22.968-22.968,22.968C185.376,330.457,175.093,320.173,175.093,307.489z M129.156,341.94
		c0-12.551,3.357-24.316,9.22-34.451c11.915,20.595,34.181,34.451,59.685,34.451c25.504,0,47.77-13.856,59.684-34.451
		c5.864,10.135,9.221,21.9,9.221,34.451c0,38.056-30.85,68.905-68.905,68.905C160.006,410.846,129.156,379.996,129.156,341.94z
		 M198.062,273.036c-25.504,0-47.77,13.857-59.685,34.454c-5.863-10.136-9.22-21.902-9.22-34.454
		c0-38.055,30.85-68.905,68.905-68.905c38.055,0,68.905,30.85,68.905,68.905c0,12.551-3.357,24.317-9.221,34.454
		C245.831,286.893,223.565,273.036,198.062,273.036z"/>
	<path clip-path="url(#SVGID_4_)" fill="#0000FF" d="M651.743,107.738h9v-75.6h-9V107.738z M629.895,107.738h9v-75.6h-9V107.738z
		 M605.905,43.338c0,3.6,3,6.6,6.601,6.6c3.6,0,6.6-3,6.6-6.6s-3-6.6-6.6-6.6C608.905,36.738,605.905,39.738,605.905,43.338
		 M608.006,107.738h9v-47.4h-9V107.738z M542.856,107.738h9.7l11.3-35.4h0.2l12.5,35.4h9.1l15.301-47.4h-9.5l-10.2,35.4h-0.2
		l-12-35.4h-9.5l-11.3,35.4h-0.2l-10.7-35.4h-10.1L542.856,107.738z"/>
	<path clip-path="url(#SVGID_4_)" fill="#0000FF" d="M669.874,528.339h-9v24.399c0,11-5.7,15.8-13.2,15.8
		c-5.699,0-10.8-3.3-10.8-12.199v-28h-9v30.5c0,12.6,8,18.1,17.2,18.1c7.3,0,13.3-3.5,15.6-8.5h0.2v7.3h9V528.339z M567.936,552.038
		c0,13.801,11.1,24.9,25.2,24.9c14.1,0,25.199-11.1,25.199-24.9c0-13.8-11.1-24.899-25.199-24.899
		C579.035,527.139,567.936,538.238,567.936,552.038 M577.535,552.038c0-9.6,6-16.5,15.601-16.5c9.6,0,15.6,6.9,15.6,16.5
		c0,9.601-6,16.5-15.6,16.5C583.535,568.538,577.535,561.639,577.535,552.038 M537.825,576.038l-2.899,7.5
		c-1.801,4.7-3.5,7.801-9.2,7.801c-1.8,0-3.7-0.4-5.4-1.101l-1.1,8.2c2.5,1,5.3,1.3,8,1.3c9.899,0,13-5.6,16.2-13.8l22.5-57.6h-9.7
		l-13.4,37h-0.2l-14.1-37h-10.4L537.825,576.038z"/>
	<path clip-path="url(#SVGID_4_)" fill="#0000FF" d="M257.084,612.738c0,0,139.68,0.72,139.68-138.96c0,0,2.88,138.96,138.96,138.96
		H257.084z"/>
	<path clip-path="url(#SVGID_4_)" fill="#0000FF" d="M536.764-0.222c0,0-139.68-0.72-139.68,138.96c0,0-2.88-138.96-138.96-138.96
		H536.764z"/>
</g>
<text transform="matrix(1 0 0 1 730.5596 588)"><tspan x="0" y="0" fill="#0000FF" font-family="'Avenir-Black'" font-size="6">J</tspan><tspan x="3.126" y="0" fill="#0000FF" font-family="'Avenir-Black'" font-size="6">a</tspan><tspan x="6.528" y="0" fill="#0000FF" font-family="'Avenir-Black'" font-size="6">c</tspan><tspan x="9.516" y="0" fill="#0000FF" font-family="'Avenir-Black'" font-size="6">o</tspan><tspan x="13.313" y="0" fill="#0000FF" font-family="'Avenir-Black'" font-size="6">b </tspan><tspan x="18.87" y="0" fill="#0000FF" font-family="'Avenir-Black'" font-size="6">J</tspan><tspan x="22.014" y="0" fill="#0000FF" font-family="'Avenir-Black'" font-size="6">o</tspan><tspan x="25.848" y="0" fill="#0000FF" font-family="'Avenir-Black'" font-size="6">h</tspan><tspan x="29.489" y="0" fill="#0000FF" font-family="'Avenir-Black'" font-size="6">n</tspan><tspan x="33.107" y="0" fill="#0000FF" font-family="'Avenir-Black'" font-size="6">s</tspan><tspan x="36.041" y="0" fill="#0000FF" font-family="'Avenir-Black'" font-size="6">o</tspan><tspan x="39.882" y="0" fill="#0000FF" font-family="'Avenir-Black'" font-size="6">n</tspan></text>
<g>
	<defs>
		<rect id="SVGID_5_" width="792" height="612"/>
	</defs>
	<clipPath id="SVGID_6_">
		<use xlink:href="#SVGID_5_"  overflow="visible"/>
	</clipPath>
	<defs>
		<filter id="Adobe_OpacityMaskFilter" filterUnits="userSpaceOnUse" x="263" y="-0.5" width="134.5" height="613">
			<feColorMatrix  type="matrix" values="1 0 0 0 0  0 1 0 0 0  0 0 1 0 0  0 0 0 1 0"/>
		</filter>
	</defs>
	<mask maskUnits="userSpaceOnUse" x="263" y="-0.5" width="134.5" height="613" id="SVGID_7_">
		<g filter="url(#Adobe_OpacityMaskFilter)">
			
				<linearGradient id="SVGID_8_" gradientUnits="userSpaceOnUse" x1="0" y1="614.2783" x2="1" y2="614.2783" gradientTransform="matrix(134.5 0 0 -134.5 263 82926.5)">
				<stop  offset="0" style="stop-color:#000000"/>
				<stop  offset="1" style="stop-color:#FFFFFF"/>
			</linearGradient>
			<rect clip-path="url(#SVGID_6_)" fill="url(#SVGID_8_)" width="792" height="612"/>
		</g>
	</mask>
	<g clip-path="url(#SVGID_6_)" mask="url(#SVGID_7_)">
		<g>
			<defs>
				<rect id="SVGID_9_" x="263" y="-0.5" width="134.5" height="613"/>
			</defs>
			<clipPath id="SVGID_10_">
				<use xlink:href="#SVGID_9_"  overflow="visible"/>
			</clipPath>
			<rect x="264" y="0.5" clip-path="url(#SVGID_10_)" fill="#0000FF" width="132.5" height="611"/>
		</g>
	</g>
	<defs>
		<filter id="Adobe_OpacityMaskFilter_1_" filterUnits="userSpaceOnUse" x="395.5" y="-0.5" width="133.5" height="613">
			<feColorMatrix  type="matrix" values="1 0 0 0 0  0 1 0 0 0  0 0 1 0 0  0 0 0 1 0"/>
		</filter>
	</defs>
	<mask maskUnits="userSpaceOnUse" x="395.5" y="-0.5" width="133.5" height="613" id="SVGID_11_">
		<g filter="url(#Adobe_OpacityMaskFilter_1_)">
			
				<linearGradient id="SVGID_12_" gradientUnits="userSpaceOnUse" x1="0" y1="614.2959" x2="1" y2="614.2959" gradientTransform="matrix(-133.5 0 0 133.5 529 -81702.5)">
				<stop  offset="0" style="stop-color:#000000"/>
				<stop  offset="1" style="stop-color:#FFFFFF"/>
			</linearGradient>
			<rect clip-path="url(#SVGID_6_)" fill="url(#SVGID_12_)" width="792" height="612"/>
		</g>
	</mask>
	<g clip-path="url(#SVGID_6_)" mask="url(#SVGID_11_)">
		<g>
			<defs>
				<rect id="SVGID_13_" x="395.5" y="-0.5" width="133.5" height="613"/>
			</defs>
			<clipPath id="SVGID_14_">
				<use xlink:href="#SVGID_13_"  overflow="visible"/>
			</clipPath>
			<rect x="396.5" y="0.5" clip-path="url(#SVGID_14_)" fill="#0000FF" width="131.5" height="611"/>
		</g>
	</g>
</g>
</svg>
