<?xml version="1.0" encoding="utf-8"?>
<!-- Generator: Adobe Illustrator 16.0.4, SVG Export Plug-In . SVG Version: 6.00 Build 0)  -->
<!DOCTYPE svg PUBLIC "-//W3C//DTD SVG 1.1//EN" "http://www.w3.org/Graphics/SVG/1.1/DTD/svg11.dtd">
<svg version="1.1" id="Layer_1" xmlns="http://www.w3.org/2000/svg" xmlns:xlink="http://www.w3.org/1999/xlink" x="0px" y="0px"
	 width="792px" height="612px" viewBox="0 0 792 612" enable-background="new 0 0 792 612" xml:space="preserve">
<rect fill="#FFFFFF" width="792" height="612"/>
<g>
	<defs>
		<rect id="SVGID_1_" width="792" height="612"/>
	</defs>
	<clipPath id="SVGID_2_">
		<use xlink:href="#SVGID_1_"  overflow="visible"/>
	</clipPath>
	<g clip-path="url(#SVGID_2_)">
		<text transform="matrix(1 0 0 1 188.5601 17.7598)" fill="#0000FF" font-family="'Avenir-Black'" font-size="10">fear</text>
	</g>
	<g clip-path="url(#SVGID_2_)">
		<text transform="matrix(1 0 0 1 577.7002 17.7598)"><tspan x="0" y="0" fill="#0000FF" font-family="'Avenir-Black'" font-size="10">cultu</tspan><tspan x="22.97" y="0" fill="#0000FF" font-family="'Avenir-Black'" font-size="10">r</tspan><tspan x="26.859" y="0" fill="#0000FF" font-family="'Avenir-Black'" font-size="10">e</tspan></text>
	</g>
</g>
<g>
	<defs>
		<rect id="SVGID_3_" width="792" height="612"/>
	</defs>
	<clipPath id="SVGID_4_">
		<use xlink:href="#SVGID_3_"  overflow="visible"/>
	</clipPath>
	<path clip-path="url(#SVGID_4_)" fill="#0000FF" d="M299.274,421.757c0.233,0.567,0.558,1.059,0.975,1.475
		c0.416,0.417,0.908,0.742,1.475,0.976c0.566,0.232,1.166,0.35,1.8,0.35c0.633,0,1.233-0.117,1.8-0.35
		c0.566-0.233,1.058-0.559,1.475-0.976c0.416-0.416,0.741-0.907,0.975-1.475c0.233-0.566,0.35-1.166,0.35-1.8
		c0-0.633-0.117-1.233-0.35-1.8c-0.234-0.566-0.559-1.059-0.975-1.476c-0.417-0.416-0.909-0.741-1.475-0.975
		c-0.567-0.233-1.167-0.351-1.8-0.351c-0.634,0-1.234,0.117-1.8,0.351c-0.567,0.233-1.059,0.559-1.475,0.975
		c-0.417,0.417-0.742,0.909-0.975,1.476c-0.234,0.566-0.35,1.167-0.35,1.8C298.925,420.591,299.041,421.19,299.274,421.757
		 M299.774,412.557h7.5v-1.45c0-0.565,0.133-1.133,0.4-1.699c0.266-0.566,0.783-1.15,1.55-1.75c1.2-0.934,2.191-1.791,2.975-2.575
		c0.783-0.783,1.416-1.559,1.9-2.325c0.483-0.766,0.825-1.541,1.025-2.325c0.2-0.783,0.3-1.658,0.3-2.625c0-1.6-0.3-3.016-0.9-4.25
		c-0.6-1.232-1.417-1.266-2.45-2.1c-1.034-0.833-2.225-1.458-3.575-1.875c-1.35-0.416-2.792-0.625-4.325-0.625
		c-3.5,0-6.367,0.925-8.6,2.774c-2.234,1.851-3.534,3.542-3.9,7.075l7.7,0.5c0.1-1.232,0.558-2.283,1.375-3.149
		c0.816-0.866,2.008-1.301,3.575-1.301c1.033,0,1.891,0.31,2.575,0.926c0.683,0.616,1.025,1.475,1.025,2.574
		c0,0.567-0.159,1.109-0.475,1.625c-0.317,0.518-0.759,1.067-1.325,1.65c-0.567,0.584-1.242,1.209-2.025,1.875
		c-0.784,0.667-1.642,1.45-2.575,2.35c-0.634,0.601-1.084,1.25-1.35,1.95c-0.267,0.7-0.4,1.55-0.4,2.55V412.557z M269.675,409.356
		c0.033-0.6,0.175-1.175,0.425-1.725s0.6-1.033,1.05-1.45c0.45-0.416,0.992-0.758,1.625-1.024c0.633-0.267,1.367-0.4,2.2-0.4
		c1.367,0,2.483,0.45,3.35,1.35c0.867,0.9,1.283,1.984,1.25,3.25H269.675z M280.675,416.207c-0.633,0.867-1.375,1.575-2.225,2.125
		s-1.892,0.825-3.125,0.825c-1.467,0-2.7-0.426-3.7-1.275s-1.65-1.991-1.95-3.425h17.4v-2.351c0-1.933-0.267-3.683-0.8-5.25
		c-0.533-1.565-1.292-2.907-2.275-4.024c-0.983-1.116-2.183-1.976-3.6-2.575s-2.992-0.9-4.725-0.9c-1.867,0-3.625,0.301-5.275,0.9
		c-1.65,0.6-3.083,1.459-4.3,2.575c-1.217,1.117-2.175,2.459-2.875,4.024c-0.7,1.567-1.05,3.317-1.05,5.25
		c0,1.935,0.35,3.685,1.05,5.25c0.7,1.567,1.658,2.909,2.875,4.025c1.217,1.117,2.65,1.975,4.3,2.575
		c1.65,0.6,3.408,0.899,5.275,0.899c1.967,0,3.867-0.417,5.7-1.25s3.35-2.016,4.55-3.55L280.675,416.207z M243.475,424.257h7.5
		v-10.15c0-1.199,0.066-2.3,0.2-3.3c0.133-1,0.425-1.857,0.875-2.575c0.45-0.716,1.091-1.274,1.925-1.675
		c0.833-0.399,1.966-0.6,3.4-0.6c0.566,0,1.108,0.042,1.625,0.125c0.516,0.084,1.041,0.209,1.575,0.375v-6.851
		c-0.367-0.1-0.767-0.166-1.2-0.199c-0.434-0.033-0.867-0.051-1.3-0.051c-1.667,0-3.05,0.375-4.15,1.125
		c-1.1,0.75-2.05,1.875-2.85,3.375h-0.1v-3.899h-7.5V424.257z M125.125,417.356c0.7,1.567,1.658,2.909,2.875,4.025
		c1.216,1.117,2.65,1.975,4.3,2.575c1.65,0.6,3.408,0.899,5.275,0.899c1.866,0,91.625,0.7,93.275,0.101
		c1.65-0.601,3.083-1.458,4.3-2.575c1.216-1.116,2.175-2.458,2.875-4.025c0.7-1.565,1.05-4.315,1.05-6.25
		c0-1.933-0.35-4.683-1.05-6.25c-0.7-1.565-1.659-2.907-2.875-4.024c-1.217-1.116-2.65-1.976-4.3-2.575s-91.409,0.1-93.275,0.1
		c-1.867,0-3.625,0.301-5.275,0.9c-1.65,0.6-3.084,1.459-4.3,2.575c-1.217,1.117-2.175,2.459-2.875,4.024
		c-0.7,1.567-1.05,3.317-1.05,5.25C124.076,414.041,124.426,415.791,125.125,417.356 M81.476,424.257h7.5v-12.1
		c0-0.801,0.05-1.566,0.15-2.301c0.1-0.732,0.308-1.391,0.625-1.975c0.316-0.583,0.775-1.05,1.375-1.4
		c0.6-0.35,1.383-0.524,2.35-0.524c0.866,0,1.525,0.2,1.975,0.6c0.45,0.4,0.775,0.884,0.975,1.45c0.2,0.567,0.316,1.167,0.35,1.8
		c0.033,0.634,0.05,1.167,0.05,1.601v12.85h7.5v-12.85c0-0.733,0.075-1.434,0.225-2.101c0.15-0.666,0.4-1.25,0.75-1.75
		c0.35-0.5,0.816-0.891,1.4-1.175c0.583-0.283,1.308-0.425,2.175-0.425c1.233,0,2.091,0.409,2.575,1.225
		c0.483,0.817,0.725,1.792,0.725,2.925v14.15h7.5v-14.35c0-1.467-0.142-2.842-0.425-4.125c-0.284-1.283-0.75-2.4-1.4-3.351
		s-1.534-1.7-2.65-2.25c-1.117-0.55-2.492-0.825-4.125-0.825c-1.8,0-3.317,0.334-4.55,1c-1.234,0.667-2.284,1.784-3.15,3.351
		c-0.667-1.5-1.659-2.601-2.975-3.3c-1.317-0.7-2.825-1.051-4.525-1.051c-0.9,0-1.734,0.117-2.5,0.351
		c-0.767,0.233-1.45,0.534-2.05,0.899c-0.6,0.367-1.117,0.784-1.55,1.25c-0.434,0.468-0.767,0.935-1,1.4h-0.1v-3.3h-7.2V424.257z"/>
	<path clip-path="url(#SVGID_4_)" fill="#0000FF" d="M292.473,359.357c0.042-0.601,0.225-1.176,0.546-1.726s0.771-1.033,1.349-1.45
		c0.578-0.417,1.273-0.758,2.087-1.024c0.813-0.268,1.756-0.4,2.826-0.4c1.756,0,3.19,0.45,4.304,1.351
		c1.113,0.899,1.648,1.982,1.606,3.25H292.473z M306.604,366.207c-0.814,0.867-1.766,1.575-2.858,2.125
		c-1.092,0.55-2.431,0.825-4.015,0.825c-1.885,0-3.468-0.425-4.753-1.275c-1.285-0.85-2.12-1.992-2.505-3.425h22.353v-2.35
		c0-1.934-0.344-3.684-1.028-5.25c-0.686-1.567-1.66-2.908-2.923-4.025s-2.805-1.975-4.624-2.575c-1.821-0.6-3.844-0.899-6.07-0.899
		c-2.399,0-4.657,0.3-6.777,0.899c-2.119,0.601-3.961,1.458-5.524,2.575s-2.794,2.458-3.693,4.025
		c-0.899,1.566-1.349,3.316-1.349,5.25c0,1.933,0.45,3.683,1.349,5.25c0.899,1.566,2.13,2.907,3.693,4.024s3.405,1.976,5.524,2.575
		c2.12,0.6,4.378,0.9,6.777,0.9c2.526,0,4.967-0.417,7.322-1.25s4.304-2.018,5.845-3.551L306.604,366.207z M227.92,374.257h9.635
		v-12.1c0-0.8,0.064-1.567,0.193-2.3c0.128-0.733,0.395-1.393,0.803-1.976c0.406-0.583,0.995-1.05,1.766-1.399
		c0.771-0.351,1.777-0.525,3.019-0.525c1.113,0,1.959,0.2,2.537,0.6c0.578,0.4,0.996,0.884,1.253,1.45
		c0.257,0.567,0.406,1.167,0.449,1.8c0.042,0.634,0.065,1.167,0.065,1.601v12.85h9.634v-12.85c0-0.733,0.097-1.434,0.289-2.101
		c0.193-0.667,0.514-1.25,0.964-1.75c0.449-0.5,1.049-0.892,1.798-1.175s1.68-0.425,2.794-0.425c1.584,0,2.687,0.408,3.308,1.225
		c0.621,0.817,0.932,1.792,0.932,2.926v14.149h9.634v-14.35c0-1.467-0.182-2.842-0.546-4.125c-0.364-1.283-0.963-2.4-1.798-3.351
		c-0.835-0.949-1.97-1.699-3.404-2.25c-1.435-0.55-3.202-0.824-5.299-0.824c-2.313,0-4.262,0.333-5.846,1s-2.933,1.782-4.046,3.35
		c-0.857-1.5-2.131-2.6-3.822-3.3c-1.692-0.7-3.629-1.05-5.813-1.05c-1.156,0-2.227,0.116-3.211,0.35
		c-0.986,0.233-1.863,0.533-2.634,0.9c-0.771,0.366-1.435,0.782-1.991,1.25c-0.557,0.467-0.986,0.933-1.285,1.399h-0.128v-3.3h-9.25
		V374.257z M180.711,359.357c0.043-0.601,0.225-1.176,0.546-1.726c0.322-0.55,0.771-1.033,1.349-1.45s1.274-0.758,2.088-1.024
		c0.813-0.268,1.755-0.4,2.826-0.4c1.755,0,3.19,0.45,4.304,1.351c1.113,0.899,1.647,1.982,1.605,3.25H180.711z M194.842,366.207
		c-0.814,0.867-1.766,1.575-2.858,2.125c-1.092,0.55-2.431,0.825-4.014,0.825c-1.885,0-3.469-0.425-4.754-1.275
		c-1.284-0.85-2.119-1.992-2.505-3.425h22.353v-2.35c0-1.934-0.343-3.684-1.028-5.25c-0.685-1.567-1.66-2.908-2.922-4.025
		c-1.264-1.117-2.805-1.975-4.625-2.575c-1.82-0.6-3.844-0.899-6.07-0.899c-2.398,0-4.657,0.3-6.776,0.899
		c-2.12,0.601-3.961,1.458-5.524,2.575c-1.564,1.117-2.794,2.458-3.693,4.025c-0.9,1.566-1.349,3.316-1.349,5.25
		c0,1.933,0.449,3.683,1.349,5.25c0.899,1.566,2.129,2.907,3.693,4.024c1.563,1.117,3.404,1.976,5.524,2.575
		c2.119,0.6,4.378,0.9,6.776,0.9c2.526,0,4.967-0.417,7.323-1.25c2.354-0.833,4.303-2.018,5.845-3.551L194.842,366.207z
		 M145.962,374.257h10.213l12.332-24.3h-9.699l-7.322,16.5h-0.128l-7.901-16.5h-10.405L145.962,374.257z M107.649,357.657
		c1.349-1.133,3.244-1.7,5.684-1.7c2.441,0,4.336,0.567,5.685,1.7s2.023,2.617,2.023,4.45s-0.674,3.316-2.023,4.449
		c-1.349,1.134-3.244,1.7-5.685,1.7c-2.44,0-4.335-0.566-5.684-1.7c-1.349-1.133-2.023-2.616-2.023-4.449
		S106.3,358.79,107.649,357.657 M97.34,367.357c0.899,1.566,2.129,2.907,3.693,4.024c1.563,1.117,3.404,1.976,5.524,2.575
		c2.12,0.6,4.378,0.9,6.776,0.9s4.657-0.301,6.777-0.9c2.119-0.6,3.96-1.458,5.524-2.575c1.562-1.117,2.794-2.458,3.693-4.024
		c0.899-1.567,1.349-3.317,1.349-5.25c0-1.934-0.45-3.684-1.349-5.25c-0.899-1.567-2.131-2.908-3.693-4.025
		c-1.564-1.117-3.405-1.975-5.524-2.575c-2.12-0.6-4.379-0.899-6.777-0.899s-4.656,0.3-6.776,0.899
		c-2.12,0.601-3.961,1.458-5.524,2.575c-1.564,1.117-2.794,2.458-3.693,4.025c-0.9,1.566-1.349,3.316-1.349,5.25
		C95.991,364.04,96.44,365.79,97.34,367.357 M80.576,374.257h9.635v-37.8h-9.635V374.257z"/>
	<path clip-path="url(#SVGID_4_)" fill="#0000FF" d="M314.624,299.957h-7.5v12.1c0,0.8-0.05,1.567-0.15,2.3
		c-0.1,0.734-0.309,1.393-0.625,1.976c-0.318,0.584-0.775,1.05-1.375,1.399c-0.6,0.351-1.384,0.525-2.35,0.525
		c-0.968,0-1.709-0.2-2.225-0.6c-0.518-0.4-0.9-0.916-1.15-1.551c-0.25-0.633-0.4-1.324-0.45-2.074
		c-0.05-0.75-0.075-1.476-0.075-2.176v-11.899h-7.5v13.399c0,1.635,0.107,3.15,0.325,4.551c0.216,1.399,0.65,2.616,1.3,3.649
		c0.65,1.034,1.566,1.842,2.75,2.425c1.182,0.583,2.725,0.875,4.625,0.875c0.9,0,1.732-0.116,2.5-0.35
		c0.766-0.234,1.45-0.533,2.05-0.9c0.6-0.365,1.107-0.782,1.525-1.25c0.416-0.466,0.757-0.933,1.025-1.399h0.1v3.3h7.2V299.957z
		 M228.898,307.657c1.05-1.134,2.525-1.7,4.425-1.7s43.375-0.433,44.425,0.7c1.05,1.134,1.575,3.616,1.575,5.449
		c0,1.834-0.525,4.317-1.575,5.45c-1.05,1.134-42.525,0.7-44.425,0.7s-3.375-0.566-4.425-1.7c-1.05-1.133-1.575-2.616-1.575-4.45
		C227.324,310.273,227.849,308.791,228.898,307.657 M220.874,317.356c0.7,1.567,1.658,2.909,2.875,4.025
		c1.217,1.117,2.65,1.975,4.3,2.575c1.65,0.6,3.408,0.899,5.275,0.899c1.867,0,43.625,0.7,45.275,0.101
		c1.65-0.601,3.083-1.458,4.3-2.575c1.217-1.116,2.175-2.458,2.875-4.025c0.7-1.565,1.05-4.315,1.05-6.25
		c0-1.933-0.35-4.683-1.05-6.25c-0.7-1.566-1.658-2.908-2.875-4.025c-1.217-1.116-2.65-1.975-4.3-2.575s-43.408,0.1-45.275,0.1
		c-1.867,0-3.625,0.3-5.275,0.9c-1.65,0.6-3.083,1.459-4.3,2.575c-1.217,1.117-2.175,2.459-2.875,4.024
		c-0.7,1.567-1.05,3.317-1.05,5.25C219.824,314.041,220.174,315.791,220.874,317.356 M200.974,335.731
		c1.1-0.35,2.008-0.866,2.725-1.55c0.717-0.684,1.308-1.524,1.775-2.524s0.95-2.15,1.45-3.45l11-28.25h-7.7l-5.35,16.05h-0.1
		l-6.25-16.05h-8.1l10.65,24.5l-0.55,1.399c-0.267,0.666-0.517,1.25-0.75,1.75c-0.233,0.5-0.525,0.926-0.875,1.275
		c-0.35,0.35-0.792,0.616-1.325,0.8c-0.533,0.184-1.217,0.275-2.05,0.275c-1.2,0-2.367-0.25-3.5-0.75l-1,6.149 M151.225,324.257h9.5
		l23-24.8h-9.5L151.225,324.257z M136.225,324.257h9.5l23-24.8h-9.5L136.225,324.257z M125.9,295.382
		c0.85,0.85,1.875,1.275,3.075,1.275s2.225-0.425,3.075-1.275c0.85-0.85,1.275-1.875,1.275-3.075c0-1.2-0.425-2.225-1.275-3.075
		c-0.85-0.85-1.875-1.275-3.075-1.275s-2.225,0.425-3.075,1.275c-0.85,0.85-1.275,1.875-1.275,3.075
		C124.625,293.507,125.051,294.532,125.9,295.382 M125.226,324.257h7.5v-24.3h-7.5V324.257z M89.476,324.257h7.55l4.5-16.15h0.1
		l5.05,16.15h7.4l8.65-24.3h-7.6l-4.55,15.25h-0.1l-4.5-15.25h-8.2l-4.15,15.25h-0.1l-4.95-15.25h-8L89.476,324.257z"/>
	<path clip-path="url(#SVGID_4_)" fill="#0000FF" d="M296.873,270.257h7.5v-10.15c0-1.2,0.066-2.3,0.2-3.3
		c0.133-1,0.425-1.858,0.875-2.575c0.45-0.717,1.091-1.275,1.925-1.675c0.833-0.4,1.966-0.6,3.4-0.6
		c0.566,0,1.108,0.042,1.625,0.125c0.516,0.083,1.041,0.208,1.575,0.375v-6.85c-0.367-0.1-0.767-0.167-1.2-0.2
		c-0.434-0.033-0.867-0.05-1.3-0.05c-1.667,0-3.05,0.375-4.15,1.125c-1.1,0.75-2.05,1.875-2.85,3.375h-0.1v-3.9h-7.5V270.257z
		 M274.924,255.357c0.032-0.6,0.175-1.175,0.425-1.725c0.25-0.55,0.6-1.033,1.05-1.45c0.45-0.417,0.991-0.758,1.625-1.025
		c0.632-0.267,1.366-0.4,2.2-0.4c1.366,0,2.482,0.45,3.35,1.35c0.866,0.9,1.282,1.983,1.25,3.25H274.924z M285.924,262.207
		c-0.634,0.867-1.375,1.575-2.225,2.125c-0.85,0.55-1.893,0.825-3.125,0.825c-1.468,0-2.7-0.425-3.7-1.275
		c-1-0.85-1.65-1.992-1.95-3.425h17.4v-2.35c0-1.933-0.268-3.683-0.8-5.25c-0.534-1.567-1.293-2.908-2.275-4.025
		c-0.984-1.117-2.184-1.975-3.6-2.575c-1.418-0.6-2.993-0.9-4.725-0.9c-1.868,0-3.625,0.3-5.275,0.9
		c-1.65,0.6-3.084,1.458-4.3,2.575c-1.218,1.117-2.175,2.458-2.875,4.025c-0.7,1.567-1.05,3.317-1.05,5.25s0.35,3.683,1.05,5.25
		c0.7,1.567,1.657,2.908,2.875,4.025c1.216,1.117,2.65,1.975,4.3,2.575s3.407,0.9,5.275,0.9c1.966,0,3.866-0.417,5.7-1.25
		c1.832-0.833,3.35-2.017,4.55-3.55L285.924,262.207z M243.724,255.682c0.3-0.717,0.725-1.35,1.275-1.9
		c0.55-0.55,1.183-0.992,1.9-1.325c0.716-0.333,1.508-0.5,2.375-0.5c0.833,0,1.616,0.167,2.35,0.5
		c0.733,0.333,1.375,0.775,1.925,1.325c0.55,0.55,0.975,1.183,1.275,1.9c0.3,0.717,0.45,1.475,0.45,2.275s-0.15,1.558-0.45,2.275
		c-0.3,0.717-0.725,1.35-1.275,1.9c-0.55,0.55-1.192,0.992-1.925,1.325c-0.734,0.333-1.517,0.5-2.35,0.5
		c-0.867,0-1.659-0.167-2.375-0.5c-0.717-0.333-1.35-0.775-1.9-1.325c-0.55-0.55-0.975-1.183-1.275-1.9
		c-0.3-0.717-0.45-1.475-0.45-2.275S243.424,256.399,243.724,255.682 M262.174,245.957h-6.9v3.2h-0.1
		c-0.3-0.433-0.7-0.875-1.2-1.325s-1.1-0.858-1.8-1.225c-0.7-0.367-1.492-0.667-2.375-0.9c-0.884-0.233-1.859-0.35-2.925-0.35
		c-1.734,0-3.284,0.358-4.65,1.075c-1.367,0.717-2.525,1.658-3.475,2.825s-1.684,2.517-2.2,4.05c-0.517,1.533-0.775,3.1-0.775,4.7
		c0,1.833,0.283,3.517,0.85,5.05c0.566,1.533,1.375,2.858,2.425,3.975c1.05,1.117,2.308,1.983,3.775,2.6
		c1.466,0.617,3.1,0.925,4.9,0.925c1.133,0,2.341-0.242,3.625-0.725c1.283-0.483,2.358-1.308,3.225-2.475h0.1v2.35
		c0,1.733-0.542,3.158-1.625,4.275c-1.084,1.116-2.775,1.675-5.075,1.675c-1.534,0-2.942-0.284-4.225-0.85
		c-1.284-0.567-2.509-1.334-3.675-2.3l-4.15,6.2c1.766,1.4,3.7,2.341,5.8,2.825c2.1,0.483,4.233,0.725,6.4,0.725
		c4.733,0,8.258-1.192,10.575-3.575c2.316-2.384,3.475-5.875,3.475-10.475V245.957z M207.975,270.257h7.5v-12.1
		c0-0.8,0.05-1.567,0.15-2.3s0.307-1.392,0.625-1.975c0.316-0.583,0.775-1.05,1.375-1.4s1.382-0.525,2.35-0.525
		c0.966,0,1.707,0.2,2.225,0.6c0.516,0.4,0.9,0.917,1.15,1.55c0.25,0.633,0.4,1.325,0.45,2.075c0.05,0.75,0.075,1.475,0.075,2.175
		v11.9h7.5v-13.4c0-1.633-0.118-3.15-0.35-4.55c-0.234-1.4-0.675-2.617-1.325-3.65c-0.65-1.033-1.559-1.842-2.725-2.425
		c-1.168-0.583-2.7-0.875-4.6-0.875c-0.9,0-1.734,0.117-2.5,0.35c-0.768,0.233-1.45,0.533-2.05,0.9
		c-0.6,0.367-1.118,0.783-1.55,1.25c-0.434,0.467-0.768,0.933-1,1.4h-0.1v-3.3h-7.2V270.257z M101.65,253.657
		c1.05-1.133,2.525-1.7,4.425-1.7c1.9,0,87.375-0.433,88.425,0.7c1.05,1.133,1.575,2.617,1.575,4.45s-0.525,5.317-1.575,6.45
		c-1.05,1.133-86.525,0.7-88.425,0.7c-1.9,0-3.375-0.567-4.425-1.7c-1.05-1.133-1.575-2.617-1.575-4.45S100.6,254.79,101.65,253.657
		 M93.625,263.357c0.7,1.567,1.658,2.908,2.875,4.025c1.217,1.117,2.65,1.975,4.3,2.575c1.65,0.6,3.408,0.9,5.275,0.9
		c1.867,0,87.625,0.7,89.275,0.1s3.083-1.458,4.3-2.575c1.217-1.117,2.175-2.458,2.875-4.025c0.7-1.567,1.05-5.317,1.05-7.25
		s-0.35-3.683-1.05-5.25c-0.7-1.567-1.658-2.908-2.875-4.025c-1.217-1.117-2.65-1.975-4.3-2.575c-1.65-0.6-87.408,0.1-89.275,0.1
		c-1.867,0-3.625,0.3-5.275,0.9c-1.65,0.6-3.083,1.458-4.3,2.575s-2.175,2.458-2.875,4.025s-1.05,3.317-1.05,5.25
		S92.925,261.79,93.625,263.357 M80.576,270.257h7.5v-37.8h-7.5V270.257z"/>
	<path clip-path="url(#SVGID_4_)" fill="#0000FF" d="M314.623,197.957h-7.7l-5.35,16.05h-0.1l-6.25-16.05h-8.1l10.65,24.5l-0.55,1.4
		c-0.267,0.666-0.517,1.25-0.75,1.75c-0.234,0.5-0.525,0.925-0.875,1.275c-0.35,0.35-0.792,0.616-1.325,0.8
		c-0.534,0.183-1.217,0.275-2.05,0.275c-1.2,0-2.367-0.25-3.5-0.75l-1,6.15c1.8,0.6,3.666,0.9,5.6,0.9c1.8,0,3.25-0.175,4.35-0.525
		c1.1-0.35,2.008-0.867,2.725-1.55c0.716-0.684,1.308-1.525,1.775-2.525c0.466-1,0.95-2.15,1.45-3.45L314.623,197.957z
		 M269.273,222.257h7.5v-10.15c0-1.2,0.066-2.3,0.2-3.3c0.133-1,0.425-1.858,0.875-2.575c0.45-0.717,1.091-1.275,1.925-1.675
		c0.833-0.4,1.966-0.6,3.4-0.6c0.566,0,1.108,0.042,1.625,0.125c0.516,0.083,1.041,0.208,1.575,0.375v-6.85
		c-0.367-0.1-0.767-0.167-1.2-0.2c-0.434-0.033-0.867-0.05-1.3-0.05c-1.667,0-3.05,0.375-4.15,1.125s-2.05,1.875-2.85,3.375h-0.1
		v-3.9h-7.5V222.257z M266.573,200.607c-1.167-1.2-2.542-2.042-4.125-2.525s-3.092-0.725-4.525-0.725c-1.867,0-3.625,0.3-5.275,0.9
		c-1.65,0.6-3.083,1.458-4.3,2.575c-1.217,1.117-2.175,2.458-2.875,4.025c-0.7,1.567-1.05,3.317-1.05,5.25s0.35,3.683,1.05,5.25
		c0.7,1.567,1.658,2.908,2.875,4.025c1.217,1.117,2.65,1.975,4.3,2.575s3.408,0.9,5.275,0.9c1.433,0,2.942-0.242,4.525-0.725
		c1.583-0.483,2.958-1.325,4.125-2.525l-4.95-5.2c-0.433,0.5-0.95,0.933-1.55,1.3c-0.6,0.367-1.317,0.55-2.15,0.55
		c-1.9,0-3.375-0.567-4.425-1.7c-1.05-1.133-1.575-2.617-1.575-4.45s0.525-3.317,1.575-4.45c1.05-1.133,2.525-1.7,4.425-1.7
		c0.767,0,1.483,0.175,2.15,0.525s1.183,0.792,1.55,1.325L266.573,200.607z M97.875,222.257h7.5v-18.3h5.55v-6h-5.55v-3.85
		c0-1.6,0.3-2.658,0.9-3.175s1.5-0.775,2.7-0.775c0.466,0,0.883,0.042,1.25,0.125c0.366,0.083,0.766,0.208,1.2,0.375l0.35-6.35
		c-0.7-0.167-1.417-0.283-2.15-0.35c-0.734-0.067-1.484-0.1-2.25-0.1c-2.034,0-3.675,0.258-4.925,0.775
		c-1.25,0.517-2.209,1.225-2.875,2.125c-0.667,0.9-1.117,1.942-1.35,3.125c-0.234,1.183-0.35,2.442-0.35,3.775v4.3h-4.95v6h4.95
		V222.257z M81.326,222.257h7.8v-35.4h-7.8V222.257z"/>
</g>
<line fill="none" stroke="#0000FF" stroke-width="8" x1="124.466" y1="209.377" x2="233.186" y2="209.377"/>
<line fill="none" stroke="#0000FF" stroke-width="8" x1="233.186" y1="199.817" x2="233.186" y2="218.897"/>
<line fill="none" stroke="#0000FF" stroke-width="8" x1="123.186" y1="199.817" x2="123.186" y2="218.897"/>
<line fill="none" stroke="#0000FF" stroke-width="8" x1="264.927" y1="168.588" x2="132.547" y2="168.588"/>
<polyline fill="none" stroke="#0000FF" stroke-width="8" points="264.488,439.469 336.94,439.469 336.94,355.235 "/>
<path fill="none" stroke="#0000FF" stroke-width="8" d="M336.94,359.235"/>
<line fill="none" stroke="#0000FF" stroke-width="8" x1="336.94" y1="250.821" x2="336.94" y2="165.589"/>
<path fill="none" stroke="#0000FF" stroke-width="8" d="M336.94,250.821"/>
<line fill="none" stroke="#0000FF" stroke-width="8" x1="132.547" y1="168.588" x2="59.06" y2="168.588"/>
<path fill="none" stroke="#0000FF" stroke-width="8" d="M59.06,249.852"/>
<polyline fill="none" stroke="#0000FF" stroke-width="8" points="59.06,357.249 59.06,439.469 131.368,439.469 "/>
<path fill="none" stroke="#0000FF" stroke-width="8" d="M59.06,365.249"/>
<path fill="none" stroke="#0000FF" stroke-width="8" d="M264.927,165.588"/>
<path fill="none" stroke="#0000FF" stroke-width="8" d="M59.06,249.852"/>
<g>
	<defs>
		<rect id="SVGID_5_" width="792" height="612"/>
	</defs>
	<clipPath id="SVGID_6_">
		<use xlink:href="#SVGID_5_"  overflow="visible"/>
	</clipPath>
	<path clip-path="url(#SVGID_6_)" fill="none" stroke="#0000FF" stroke-width="5" d="M195.04,491.912
		c6.683,0,12.12-5.438,12.12-12.12c0-3.789-4.451-12.216-8.028-18.987c-1.953-3.698-3.545-6.747-4.675-9.25
		c-5.38,10.308-11.537,23.614-11.537,28.237C182.92,486.475,188.357,491.912,195.04,491.912z"/>
</g>
<text transform="matrix(1 0 0 1 537 48)" fill="#0000FF" font-family="'Avenir-Heavy'" font-size="14">He could not </text>
<text transform="matrix(1 0 0 1 537 72)" fill="#0000FF" font-family="'Avenir-Heavy'" font-size="14">look at her</text>
<text transform="matrix(1 0 0 1 537 96)" fill="#0000FF" font-family="'Avenir-Heavy'" font-size="14">His eyes heavy </text>
<text transform="matrix(1 0 0 1 537 120)"><tspan x="0" y="0" fill="#0000FF" font-family="'Avenir-Heavy'" font-size="14">and bu</tspan><tspan x="45.373" y="0" fill="#0000FF" font-family="'Avenir-Heavy'" font-size="14">r</tspan><tspan x="51.057" y="0" fill="#0000FF" font-family="'Avenir-Heavy'" font-size="14">ning like </tspan></text>
<text transform="matrix(1 0 0 1 537 144)" fill="#0000FF" font-family="'Avenir-Heavy'" font-size="14">whiskey</text>
<text transform="matrix(1 0 0 1 537 168)"><tspan x="0" y="0" fill="#0000FF" font-family="'Avenir-Heavy'" font-size="14">W</tspan><tspan x="13.229" y="0" fill="#0000FF" font-family="'Avenir-Heavy'" font-size="14">aiting to be </tspan></text>
<text transform="matrix(1 0 0 1 537 192)" fill="#0000FF" font-family="'Avenir-Heavy'" font-size="14">consumed- afraid </text>
<text transform="matrix(1 0 0 1 537 216)" fill="#0000FF" font-family="'Avenir-Heavy'" font-size="14">of the sting that </text>
<text transform="matrix(1 0 0 1 537 240)" fill="#0000FF" font-family="'Avenir-Heavy'" font-size="14">would follow </text>
<text transform="matrix(1 0 0 1 537 264)" fill="#0000FF" font-family="'Avenir-Heavy'" font-size="14">every sip</text>
<text transform="matrix(1 0 0 1 537 288)" fill="#0000FF" font-family="'Avenir-Heavy'" font-size="14">“I wish I could </text>
<text transform="matrix(1 0 0 1 537 312)" fill="#0000FF" font-family="'Avenir-Heavy'" font-size="14">explain,” he </text>
<text transform="matrix(1 0 0 1 537 336)" fill="#0000FF" font-family="'Avenir-Heavy'" font-size="14">mumbled</text>
<text transform="matrix(1 0 0 1 537 384)" fill="#0000FF" font-family="'Avenir-Heavy'" font-size="14">She felt as if </text>
<text transform="matrix(1 0 0 1 537 408)" fill="#0000FF" font-family="'Avenir-Heavy'" font-size="14">her body had </text>
<text transform="matrix(1 0 0 1 537 432)"><tspan x="0" y="0" fill="#0000FF" font-family="'Avenir-Heavy'" font-size="14">shatte</tspan><tspan x="40.697" y="0" fill="#0000FF" font-family="'Avenir-Heavy'" font-size="14">r</tspan><tspan x="45.891" y="0" fill="#0000FF" font-family="'Avenir-Heavy'" font-size="14">ed into </tspan></text>
<text transform="matrix(1 0 0 1 537 456)"><tspan x="0" y="0" fill="#0000FF" font-family="'Avenir-Heavy'" font-size="14">pieces- scatte</tspan><tspan x="89.458" y="0" fill="#0000FF" font-family="'Avenir-Heavy'" font-size="14">r</tspan><tspan x="94.652" y="0" fill="#0000FF" font-family="'Avenir-Heavy'" font-size="14">ed </tspan></text>
<text transform="matrix(1 0 0 1 537 480)" fill="#0000FF" font-family="'Avenir-Heavy'" font-size="14">all over</text>
<text transform="matrix(1 0 0 1 537 504)" fill="#0000FF" font-family="'Avenir-Heavy'" font-size="14">Relocating the </text>
<text transform="matrix(1 0 0 1 537 528)" fill="#0000FF" font-family="'Avenir-Heavy'" font-size="14">bits would be </text>
<text transform="matrix(1 0 0 1 537 552)" fill="#0000FF" font-family="'Avenir-Heavy'" font-size="14">quite the task</text>
<text transform="matrix(1 0 0 1 537 576)"><tspan x="0" y="0" fill="#0000FF" font-family="'Avenir-Heavy'" font-size="14">some </tspan><tspan x="39.115" y="0" fill="#0000FF" font-family="'Avenir-Heavy'" font-size="14">r</tspan><tspan x="44.323" y="0" fill="#0000FF" font-family="'Avenir-Heavy'" font-size="14">olling </tspan></text>
<text transform="matrix(1 0 0 1 660 48)" fill="#0000FF" font-family="'Avenir-Heavy'" font-size="14">under the couch</text>
<text transform="matrix(1 0 0 1 660 72)" fill="#0000FF" font-family="'Avenir-Heavy'" font-size="14">Some falling </text>
<text transform="matrix(1 0 0 1 660 96)" fill="#0000FF" font-family="'Avenir-Heavy'" font-size="14">into the cracks </text>
<text transform="matrix(1 0 0 1 660 120)" fill="#0000FF" font-family="'Avenir-Heavy'" font-size="14">between the </text>
<path fill="#0000FF" d="M661.555,138.705h-1.387v-1.429h1.387v-0.953c0-1.863,0.42-3.082,2.508-3.082
	c0.364,0,0.714,0.028,1.064,0.098l-0.112,1.429c-0.238-0.056-0.462-0.098-0.7-0.098c-0.938,0-1.079,0.645-1.079,1.387v1.219h1.556
	v1.429h-1.556V144h-1.681V138.705z M665.883,133.41h1.682V144h-1.682V133.41z M672.574,137.108c2.031,0,3.656,1.415,3.656,3.53
	s-1.625,3.53-3.656,3.53s-3.656-1.415-3.656-3.53S670.543,137.108,672.574,137.108z M672.574,142.655
	c1.232,0,1.976-0.966,1.976-2.017s-0.743-2.017-1.976-2.017s-1.975,0.966-1.975,2.017S671.342,142.655,672.574,142.655z
	 M681.114,137.108c2.031,0,3.656,1.415,3.656,3.53s-1.625,3.53-3.656,3.53s-3.656-1.415-3.656-3.53S679.083,137.108,681.114,137.108
	z M681.114,142.655c1.232,0,1.976-0.966,1.976-2.017s-0.743-2.017-1.976-2.017s-1.975,0.966-1.975,2.017
	S679.882,142.655,681.114,142.655z M686.335,137.276h1.681v1.064h0.028c0.364-0.771,1.106-1.232,1.988-1.232
	c0.21,0,0.406,0.042,0.603,0.098v1.625c-0.28-0.07-0.546-0.126-0.812-0.126c-1.583,0-1.807,1.331-1.807,1.695v3.6h-1.681V137.276z
	 M695.925,133.41h1.681v4.721h0.042c0.351-0.434,1.022-1.022,2.283-1.022c1.919,0,3.25,1.541,3.25,3.53s-1.247,3.53-3.319,3.53
	c-0.939,0-1.821-0.364-2.312-1.177h-0.028V144h-1.597V133.41z M699.524,138.621c-1.232,0-1.975,0.966-1.975,2.017
	s0.742,2.017,1.975,2.017c1.233,0,1.976-0.966,1.976-2.017S700.758,138.621,699.524,138.621z M708.064,137.108
	c2.031,0,3.656,1.415,3.656,3.53s-1.625,3.53-3.656,3.53s-3.656-1.415-3.656-3.53S706.033,137.108,708.064,137.108z
	 M708.064,142.655c1.232,0,1.976-0.966,1.976-2.017s-0.743-2.017-1.976-2.017s-1.975,0.966-1.975,2.017
	S706.832,142.655,708.064,142.655z M717.487,143.076h-0.042c-0.477,0.756-1.261,1.092-2.157,1.092c-1.247,0-2.451-0.686-2.451-2.017
	c0-2.185,2.549-2.339,4.229-2.339h0.421v-0.182c0-0.827-0.645-1.261-1.541-1.261c-0.7,0-1.345,0.28-1.793,0.7l-0.883-0.882
	c0.743-0.756,1.793-1.079,2.857-1.079c2.872,0,2.872,2.073,2.872,3.025V144h-1.513V143.076z M717.389,140.988h-0.35
	c-0.925,0-2.521,0.07-2.521,1.037c0,0.616,0.63,0.882,1.177,0.882c1.148,0,1.694-0.602,1.694-1.541V140.988z M720.803,137.276h1.681
	v1.064h0.028c0.364-0.771,1.106-1.232,1.989-1.232c0.21,0,0.406,0.042,0.603,0.098v1.625c-0.28-0.07-0.547-0.126-0.812-0.126
	c-1.583,0-1.808,1.331-1.808,1.695v3.6h-1.681V137.276z M731.318,142.991h-0.028c-0.49,0.812-1.372,1.177-2.311,1.177
	c-2.073,0-3.32-1.541-3.32-3.53s1.331-3.53,3.25-3.53c1.261,0,1.933,0.588,2.283,1.022h0.042v-4.721h1.681V144h-1.597V142.991z
	 M729.315,142.655c1.232,0,1.975-0.966,1.975-2.017s-0.742-2.017-1.975-2.017s-1.976,0.966-1.976,2.017
	S728.083,142.655,729.315,142.655z M738.401,139.139c-0.322-0.448-0.742-0.686-1.316-0.686c-0.448,0-0.98,0.21-0.98,0.714
	c0,1.205,3.628,0.224,3.628,2.843c0,1.597-1.527,2.157-2.899,2.157c-1.037,0-1.934-0.266-2.62-1.037l1.121-1.05
	c0.435,0.476,0.883,0.826,1.597,0.826c0.49,0,1.121-0.238,1.121-0.77c0-1.387-3.628-0.294-3.628-2.858
	c0-1.499,1.345-2.171,2.703-2.171c0.896,0,1.849,0.28,2.396,1.022L738.401,139.139z"/>
<text transform="matrix(1 0 0 1 660 192)" fill="#0000FF" font-family="'Avenir-Heavy'" font-size="14">He did not want </text>
<g>
	<defs>
		<rect id="SVGID_7_" width="792" height="612"/>
	</defs>
	<clipPath id="SVGID_8_">
		<use xlink:href="#SVGID_7_"  overflow="visible"/>
	</clipPath>
	<g clip-path="url(#SVGID_8_)">
		<text transform="matrix(1 0 0 1 660 216)"><tspan x="0" y="0" fill="#0000FF" font-family="'Avenir-Heavy'" font-size="14" letter-spacing="29">th</tspan><tspan x="73.401" y="0" fill="#0000FF" font-family="'Avenir-Heavy'" font-size="14" letter-spacing="29">i</tspan><tspan x="106.987" y="0" fill="#0000FF" font-family="'Avenir-Heavy'" font-size="14">s</tspan></text>
	</g>
</g>
<text transform="matrix(1 0 0 1 660 240)" fill="#0000FF" font-family="'Avenir-Heavy'" font-size="14">She did not want </text>
<g>
	<defs>
		<rect id="SVGID_9_" width="792" height="612"/>
	</defs>
	<clipPath id="SVGID_10_">
		<use xlink:href="#SVGID_9_"  overflow="visible"/>
	</clipPath>
	<g clip-path="url(#SVGID_10_)">
		<text transform="matrix(1 0 0 1 660 264)"><tspan x="0" y="0" fill="#0000FF" font-family="'Avenir-Heavy'" font-size="14" letter-spacing="29">th</tspan><tspan x="73.401" y="0" fill="#0000FF" font-family="'Avenir-Heavy'" font-size="14" letter-spacing="29">i</tspan><tspan x="106.987" y="0" fill="#0000FF" font-family="'Avenir-Heavy'" font-size="14">s</tspan></text>
	</g>
</g>
<text transform="matrix(1 0 0 1 660 312)"><tspan x="0" y="0" fill="#0000FF" font-family="'Avenir-Heavy'" font-size="14">His hands we</tspan><tspan x="86.322" y="0" fill="#0000FF" font-family="'Avenir-Heavy'" font-size="14">r</tspan><tspan x="91.517" y="0" fill="#0000FF" font-family="'Avenir-Heavy'" font-size="14">e </tspan></text>
<text transform="matrix(1 0 0 1 660 336)"><tspan x="0" y="0" fill="#0000FF" font-family="'Avenir-Heavy'" font-size="14">cold and ha</tspan><tspan x="75.963" y="0" fill="#0000FF" font-family="'Avenir-Heavy'" font-size="14">r</tspan><tspan x="81.156" y="0" fill="#0000FF" font-family="'Avenir-Heavy'" font-size="14">d as </tspan></text>
<text transform="matrix(1 0 0 1 660 360)"><tspan x="0" y="0" fill="#0000FF" font-family="'Avenir-Heavy'" font-size="14">he </tspan><tspan x="20.216" y="0" fill="#0000FF" font-family="'Avenir-Heavy'" font-size="14">r</tspan><tspan x="25.424" y="0" fill="#0000FF" font-family="'Avenir-Heavy'" font-size="14">ested them </tspan></text>
<text transform="matrix(1 0 0 1 660 384)" fill="#0000FF" font-family="'Avenir-Heavy'" font-size="14">on the small of </text>
<text transform="matrix(1 0 0 1 660 408)" fill="#0000FF" font-family="'Avenir-Heavy'" font-size="14">her back </text>
<text transform="matrix(1 0 0 1 660 432)" fill="#0000FF" font-family="'Avenir-Heavy'" font-size="14">Pulling closer </text>
<path fill="#0000FF" d="M665.154,455.075h-0.041c-0.477,0.757-1.262,1.093-2.158,1.093c-1.246,0-2.451-0.687-2.451-2.017
	c0-2.186,2.55-2.34,4.23-2.34h0.42v-0.182c0-0.827-0.644-1.261-1.54-1.261c-0.7,0-1.345,0.28-1.793,0.7l-0.883-0.883
	c0.742-0.756,1.793-1.078,2.857-1.078c2.872,0,2.872,2.073,2.872,3.025V456h-1.514V455.075z M665.057,452.988h-0.35
	c-0.925,0-2.521,0.07-2.521,1.037c0,0.616,0.63,0.882,1.176,0.882c1.149,0,1.695-0.603,1.695-1.541V452.988z M668.471,449.276h1.597
	v1.078h0.028c0.308-0.672,0.938-1.246,2.059-1.246c1.808,0,2.451,1.274,2.451,2.647V456h-1.681v-3.404
	c0-0.742-0.056-1.975-1.232-1.975c-1.106,0-1.541,0.812-1.541,1.709V456h-1.681V449.276z M681.829,454.991h-0.027
	c-0.49,0.812-1.373,1.177-2.312,1.177c-2.073,0-3.32-1.541-3.32-3.529c0-1.989,1.331-3.53,3.25-3.53
	c1.261,0,1.934,0.588,2.283,1.022h0.042v-4.721h1.682V456h-1.598V454.991z M679.826,454.655c1.232,0,1.976-0.967,1.976-2.017
	c0-1.051-0.743-2.018-1.976-2.018s-1.975,0.967-1.975,2.018C677.852,453.688,678.594,454.655,679.826,454.655z M690.073,450.705
	h-1.387v-1.429h1.387v-0.952c0-1.863,0.42-3.082,2.507-3.082c0.364,0,0.715,0.028,1.064,0.098l-0.111,1.429
	c-0.238-0.056-0.463-0.098-0.7-0.098c-0.938,0-1.079,0.645-1.079,1.387v1.219h1.555v1.429h-1.555V456h-1.681V450.705z
	 M695.242,445.984c0.616,0,1.092,0.435,1.092,1.009s-0.476,1.009-1.092,1.009s-1.064-0.477-1.064-1.009
	S694.626,445.984,695.242,445.984z M694.401,449.276h1.681V456h-1.681V449.276z M704.692,449.276v6.121
	c0,2.424-1.177,3.964-3.796,3.964c-1.247,0-2.381-0.266-3.334-1.106l1.009-1.372c0.673,0.616,1.373,0.966,2.312,0.966
	c1.625,0,2.129-0.924,2.129-2.255v-0.49h-0.028c-0.49,0.658-1.358,0.98-2.199,0.98c-2.017,0-3.348-1.541-3.348-3.445
	c0-1.989,1.247-3.53,3.32-3.53c0.938,0,1.82,0.364,2.311,1.177h0.028v-1.009H704.692z M699.117,452.624
	c0,1.064,0.841,1.947,1.976,1.947c1.246,0,2.003-0.854,2.003-1.976c0-1.162-0.771-1.975-1.989-1.975
	C699.93,450.621,699.117,451.434,699.117,452.624z M708.273,450.215h0.028c0.267-0.561,0.938-1.106,1.976-1.106
	c1.807,0,2.451,1.274,2.451,2.647V456h-1.682v-3.404c0-0.742-0.056-1.975-1.232-1.975c-1.106,0-1.541,0.812-1.541,1.709V456h-1.681
	v-10.59h1.681V450.215z M713.845,450.705v-1.429h1.387v-1.947h1.681v1.947h1.849v1.429h-1.849v2.941
	c0,0.673,0.196,1.093,0.938,1.093c0.294,0,0.7-0.056,0.91-0.21v1.415c-0.35,0.168-0.938,0.224-1.33,0.224
	c-1.779,0-2.199-0.798-2.199-2.381v-3.082H713.845z M720.93,445.984c0.616,0,1.093,0.435,1.093,1.009s-0.477,1.009-1.093,1.009
	s-1.064-0.477-1.064-1.009S720.313,445.984,720.93,445.984z M720.104,449.276h1.681V456h-1.681V449.276z M723.715,449.276h1.597
	v1.078h0.028c0.309-0.672,0.938-1.246,2.059-1.246c1.808,0,2.452,1.274,2.452,2.647V456h-1.682v-3.404
	c0-0.742-0.056-1.975-1.232-1.975c-1.106,0-1.541,0.812-1.541,1.709V456h-1.681V449.276z M738.671,449.276v6.121
	c0,2.424-1.177,3.964-3.796,3.964c-1.247,0-2.382-0.266-3.334-1.106l1.009-1.372c0.672,0.616,1.372,0.966,2.311,0.966
	c1.625,0,2.13-0.924,2.13-2.255v-0.49h-0.028c-0.49,0.658-1.358,0.98-2.199,0.98c-2.017,0-3.348-1.541-3.348-3.445
	c0-1.989,1.246-3.53,3.319-3.53c0.938,0,1.821,0.364,2.312,1.177h0.028v-1.009H738.671z M733.096,452.624
	c0,1.064,0.841,1.947,1.975,1.947c1.247,0,2.004-0.854,2.004-1.976c0-1.162-0.771-1.975-1.989-1.975
	C733.908,450.621,733.096,451.434,733.096,452.624z M743.931,450.705v-1.429h1.387v-1.947h1.681v1.947h1.85v1.429h-1.85v2.941
	c0,0.673,0.196,1.093,0.938,1.093c0.295,0,0.701-0.056,0.911-0.21v1.415c-0.351,0.168-0.938,0.224-1.331,0.224
	c-1.778,0-2.199-0.798-2.199-2.381v-3.082H743.931z M751.842,450.215h0.028c0.267-0.561,0.938-1.106,1.976-1.106
	c1.807,0,2.451,1.274,2.451,2.647V456h-1.682v-3.404c0-0.742-0.056-1.975-1.232-1.975c-1.106,0-1.541,0.812-1.541,1.709V456h-1.681
	v-10.59h1.681V450.215z M759.542,453.227c0.112,0.994,0.868,1.597,1.808,1.597c0.84,0,1.387-0.392,1.807-0.91l1.204,0.91
	c-0.784,0.967-1.778,1.345-2.843,1.345c-2.031,0-3.656-1.415-3.656-3.529c0-2.115,1.625-3.53,3.656-3.53
	c1.877,0,3.151,1.316,3.151,3.656v0.462H759.542z M762.988,451.966c-0.015-0.98-0.658-1.597-1.709-1.597
	c-0.995,0-1.611,0.63-1.737,1.597H762.988z"/>
<text transform="matrix(1 0 0 1 660 480)"><tspan x="0" y="0" fill="#0000FF" font-family="'Avenir-Heavy'" font-size="14">r</tspan><tspan x="5.208" y="0" fill="#0000FF" font-family="'Avenir-Heavy'" font-size="14">eality of what </tspan></text>
<text transform="matrix(1 0 0 1 660 504)" fill="#0000FF" font-family="'Avenir-Heavy'" font-size="14">was next to </text>
<text transform="matrix(1 0 0 1 660 528)" fill="#0000FF" font-family="'Avenir-Heavy'" font-size="14">come</text>
<text transform="matrix(1 0 0 1 660 552)"><tspan x="0" y="0" fill="#0000FF" font-family="'Avenir-Heavy'" font-size="14">“I’m sorr</tspan><tspan x="57.273" y="0" fill="#0000FF" font-family="'Avenir-Heavy'" font-size="14" letter-spacing="-1">y</tspan><tspan x="63.251" y="0" fill="#0000FF" font-family="'Avenir-Heavy'" font-size="14">,” </tspan></text>
<text transform="matrix(1 0 0 1 660 576)" fill="#0000FF" font-family="'Avenir-Heavy'" font-size="14">he said</text>
<text transform="matrix(1 0 0 1 195.04 601.5596)" fill="#0000FF" font-family="'Avenir-Black'" font-size="10">4</text>
<text transform="matrix(1 0 0 1 591.04 601.5596)" fill="#0000FF" font-family="'Avenir-Black'" font-size="10">5</text>
<g>
	<defs>
		<rect id="SVGID_11_" width="792" height="612"/>
	</defs>
	<clipPath id="SVGID_12_">
		<use xlink:href="#SVGID_11_"  overflow="visible"/>
	</clipPath>
	<path clip-path="url(#SVGID_12_)" fill="none" stroke="#0000FF" stroke-width="2" stroke-miterlimit="2.284" d="M466.623,194.657
		h5.824c3.255,0,6.909,0.628,6.909,4.682c0,4.396-4.226,4.511-7.48,4.511h-5.253V194.657z M457.716,227.545h8.907v-16.159h4.397
		l8.449,16.159h10.678l-10.277-17.072c5.709-1.028,8.736-5.424,8.736-11.077c0-9.421-6.966-12.276-15.245-12.276h-15.646V227.545z"
		/>
</g>
<polygon fill="none" stroke="#0000FF" stroke-width="2" stroke-miterlimit="2.284" points="458.573,287.496 487.064,287.496 
	487.064,279.274 467.479,279.274 467.479,271.052 485.009,271.052 485.009,262.83 467.479,262.83 467.479,255.293 486.037,255.293 
	486.037,247.071 458.573,247.071 "/>
<path fill="none" stroke="#0000FF" stroke-width="2" stroke-miterlimit="2.284" d="M476.758,331.14h-9.878l4.911-12.562
	L476.758,331.14z M450.893,347.24h9.821l3.368-8.564h15.702l3.482,8.564h10.05l-17.586-40.425h-7.365L450.893,347.24z"/>
<polygon fill="none" stroke="#0000FF" stroke-width="2" stroke-miterlimit="2.284" points="461.228,407.62 486.636,407.62 
	486.636,399.398 470.135,399.398 470.135,367.195 461.228,367.195 "/>
<text transform="matrix(1 0 0 1 729.4648 594)"><tspan x="0" y="0" fill="#0000FF" font-family="'Avenir-Black'" font-size="6">M</tspan><tspan x="5.838" y="0" fill="#0000FF" font-family="'Avenir-Black'" font-size="6">i</tspan><tspan x="7.596" y="0" fill="#0000FF" font-family="'Avenir-Black'" font-size="6">r</tspan><tspan x="10.188" y="0" fill="#0000FF" font-family="'Avenir-Black'" font-size="6">i</tspan><tspan x="11.904" y="0" fill="#0000FF" font-family="'Avenir-Black'" font-size="6">a</tspan><tspan x="15.354" y="0" fill="#0000FF" font-family="'Avenir-Black'" font-size="6">m </tspan><tspan x="22.35" y="0" fill="#0000FF" font-family="'Avenir-Black'" font-size="6">W</tspan><tspan x="28.319" y="0" fill="#0000FF" font-family="'Avenir-Black'" font-size="6">e</tspan><tspan x="31.926" y="0" fill="#0000FF" font-family="'Avenir-Black'" font-size="6">i</tspan><tspan x="33.684" y="0" fill="#0000FF" font-family="'Avenir-Black'" font-size="6">r</tspan><tspan x="36.27" y="0" fill="#0000FF" font-family="'Avenir-Black'" font-size="6">i</tspan><tspan x="37.979" y="0" fill="#0000FF" font-family="'Avenir-Black'" font-size="6">c</tspan><tspan x="41.069" y="0" fill="#0000FF" font-family="'Avenir-Black'" font-size="6">h</tspan></text>
<text transform="matrix(1 0 0 1 336.9277 594)"><tspan x="0" y="0" fill="#0000FF" font-family="'Avenir-Black'" font-size="6">J</tspan><tspan x="3.144" y="0" fill="#0000FF" font-family="'Avenir-Black'" font-size="6">o</tspan><tspan x="6.942" y="0" fill="#0000FF" font-family="'Avenir-Black'" font-size="6">e </tspan><tspan x="12.162" y="0" fill="#0000FF" font-family="'Avenir-Black'" font-size="6">L</tspan><tspan x="15.54" y="0" fill="#0000FF" font-family="'Avenir-Black'" font-size="6">e</tspan><tspan x="19.152" y="0" fill="#0000FF" font-family="'Avenir-Black'" font-size="6">t</tspan><tspan x="21.75" y="0" fill="#0000FF" font-family="'Avenir-Black'" font-size="6">c</tspan><tspan x="24.84" y="0" fill="#0000FF" font-family="'Avenir-Black'" font-size="6">h</tspan><tspan x="28.445" y="0" fill="#0000FF" font-family="'Avenir-Black'" font-size="6">f</tspan><tspan x="30.833" y="0" fill="#0000FF" font-family="'Avenir-Black'" font-size="6">o</tspan><tspan x="34.667" y="0" fill="#0000FF" font-family="'Avenir-Black'" font-size="6">r</tspan><tspan x="37.271" y="0" fill="#0000FF" font-family="'Avenir-Black'" font-size="6">d</tspan></text>
</svg>
